<svg width="332" height="65" viewBox="0 0 332 65" fill="none" xmlns="http://www.w3.org/2000/svg">
<g clip-path="url(#clip0_1521_118)">
<path d="M7.15226 6.42908C8.06461 6.3293 8.68539 5.70338 8.68539 4.85067C8.68539 3.94354 7.93293 3.29948 6.86068 3.29948H4.38698V8.7332H5.05479V6.45629H6.42802L7.93293 8.7332H8.71361L7.15226 6.42908ZM5.05479 5.91201V3.87097H6.7196C7.50027 3.87097 8.00818 4.28825 8.00818 4.85067C8.00818 5.49473 7.50027 5.91201 6.7196 5.91201H5.05479ZM7.15226 6.42908C8.06461 6.3293 8.68539 5.70338 8.68539 4.85067C8.68539 3.94354 7.93293 3.29948 6.86068 3.29948H4.38698V8.7332H5.05479V6.45629H6.42802L7.93293 8.7332H8.71361L7.15226 6.42908ZM5.05479 5.91201V3.87097H6.7196C7.50027 3.87097 8.00818 4.28825 8.00818 4.85067C8.00818 5.49473 7.50027 5.91201 6.7196 5.91201H5.05479ZM6.37159 0.705078C3.15483 0.705078 0.897461 2.96384 0.897461 6.06623C0.897461 9.16862 3.12662 11.4455 6.37159 11.4455C9.61656 11.4455 11.9021 9.19583 11.9021 6.06623C11.9021 2.93662 9.61656 0.705078 6.37159 0.705078ZM6.37159 10.8015C3.53106 10.8015 1.59348 8.83298 1.59348 6.06623C1.59348 3.29948 3.55928 1.34914 6.37159 1.34914C9.18389 1.34914 11.2061 3.31762 11.2061 6.06623C11.2061 8.81484 9.22152 10.8015 6.37159 10.8015ZM8.67599 4.85067C8.67599 3.94354 7.92353 3.29948 6.85128 3.29948H4.37757V8.7332H5.04538V6.45629H6.41861L7.92353 8.7332H8.7042L7.14285 6.42908C8.05521 6.3293 8.67599 5.70338 8.67599 4.85067ZM5.05479 5.91201V3.87097H6.7196C7.50027 3.87097 8.00818 4.28825 8.00818 4.85067C8.00818 5.49473 7.50027 5.91201 6.7196 5.91201H5.05479ZM7.15226 6.42908C8.06461 6.3293 8.68539 5.70338 8.68539 4.85067C8.68539 3.94354 7.93293 3.29948 6.86068 3.29948H4.38698V8.7332H5.05479V6.45629H6.42802L7.93293 8.7332H8.71361L7.15226 6.42908ZM5.05479 5.91201V3.87097H6.7196C7.50027 3.87097 8.00818 4.28825 8.00818 4.85067C8.00818 5.49473 7.50027 5.91201 6.7196 5.91201H5.05479ZM7.15226 6.42908C8.06461 6.3293 8.68539 5.70338 8.68539 4.85067C8.68539 3.94354 7.93293 3.29948 6.86068 3.29948H4.38698V8.7332H5.05479V6.45629H6.42802L7.93293 8.7332H8.71361L7.15226 6.42908ZM5.05479 5.91201V3.87097H6.7196C7.50027 3.87097 8.00818 4.28825 8.00818 4.85067C8.00818 5.49473 7.50027 5.91201 6.7196 5.91201H5.05479Z" fill="white" fill-opacity="0.9"/>
<path d="M323.091 49.2007C318.764 49.2007 315.077 52.6569 315.077 57.0564C315.077 61.456 318.764 64.9122 323.091 64.9122C327.417 64.9122 331.104 61.456 331.104 57.0564C331.104 52.6569 327.417 49.2007 323.091 49.2007Z" fill="white" fill-opacity="0.9"/>
<path d="M305.107 0.868652H295.146V64.8849H305.107V0.868652Z" fill="white" fill-opacity="0.9"/>
<path d="M270.221 0.868652V13.4869H268.904C268.904 13.4869 263.11 1.19522 246.095 0.868652C244.684 0.868652 243.301 0.950294 241.947 1.11358C241.947 1.11358 241.938 1.11358 241.928 1.11358C228.958 2.67384 218.32 11.473 214.482 23.175C214.482 23.1841 214.482 23.1932 214.473 23.2022C213.485 26.2502 212.949 29.4796 212.949 32.836C212.949 35.9202 213.401 38.8956 214.247 41.7259C214.313 41.9436 214.379 42.1522 214.435 42.3699C218.339 54.4257 229.428 63.4245 242.869 64.6672C243.932 64.767 245.013 64.8124 246.095 64.8124H246.227C249.453 64.7942 252.623 64.2318 255.604 63.1705C255.642 63.1523 255.67 63.1433 255.708 63.1342C255.933 63.0525 256.15 62.9709 256.375 62.8802C256.601 62.7986 256.817 62.7078 257.034 62.6171C257.034 62.6171 257.053 62.6171 257.062 62.6081C257.288 62.5173 257.504 62.4176 257.72 62.3178C257.833 62.2633 257.946 62.218 258.05 62.1636C258.708 61.8551 259.338 61.5286 259.931 61.1929C266.421 57.4646 268.904 52.1942 268.904 52.1942H270.221V64.8124H280.181V0.868652H270.221ZM246.095 55.3329C240.461 55.3329 235.297 53.4007 231.262 50.1985C231.168 50.1259 231.083 50.0533 230.999 49.9808C230.839 49.8538 230.688 49.7177 230.538 49.5907C225.844 45.4179 222.9 39.4308 222.9 32.7906C222.9 27.883 224.509 23.3292 227.255 19.6009C227.302 19.5284 227.359 19.4558 227.415 19.3832C231.667 13.8951 238.458 10.3482 246.095 10.3482C258.971 10.3482 269.412 20.4173 269.412 32.836C269.412 45.2546 258.971 55.3238 246.095 55.3238" fill="white" fill-opacity="0.9"/>
<path d="M181.694 55.1786C168.912 55.1786 158.537 45.182 158.537 32.8541C158.537 20.5262 168.902 10.5205 181.694 10.5205C189.426 10.5205 196.273 14.1763 200.477 19.7914L207.616 12.9063C201.54 5.5676 192.182 0.868652 181.694 0.868652C163.466 0.868652 148.68 15.0471 148.539 32.6001C148.539 32.6818 148.539 32.7634 148.539 32.8541C148.539 32.9448 148.539 33.0174 148.539 33.1081C148.671 50.6521 163.466 64.8305 181.694 64.8305C192.511 64.8305 202.123 59.8322 208.171 52.1035L200.995 45.182C196.847 51.2054 189.755 55.1786 181.694 55.1786Z" fill="white" fill-opacity="0.9"/>
<path d="M81.2988 45.436V45.4088C81.28 44.4291 81.1859 43.4676 81.0166 42.5242C79.8503 35.9837 75.2321 30.5772 69.0338 28.1189C69.0338 28.1189 69.0149 28.1189 69.0149 28.1098C68.4882 27.9012 67.9427 27.7107 67.3878 27.5474C67.3878 27.5474 67.3783 27.5474 67.3689 27.5474C67.3689 27.5474 67.3658 27.5474 67.3595 27.5474L24.7987 12.6614V10.4752H81.2988V0.868652H36.7063L21.7324 8.59742V11.591H21.7606H21.7324V21.8143L48.6704 31.2304L64.2274 36.6641C64.2274 36.6641 64.2368 36.6641 64.2462 36.6641L65.4408 37.0814C65.4408 37.0814 65.4502 37.0814 65.4596 37.0814C68.9209 38.5509 71.3382 41.8801 71.3476 45.7626C71.3476 45.7626 71.3476 45.7626 71.3476 45.7717C71.3476 45.7808 71.3476 45.7717 71.3476 45.7808C71.3476 50.8516 67.1996 55.0063 61.9983 55.2603H21.7418V64.8668H61.4998C68.855 64.8668 75.2697 61.0024 78.684 55.2603C80.283 52.5661 81.2236 49.4546 81.2894 46.1436V46.1164C81.2894 46.1164 81.2894 46.0983 81.2894 46.0892C81.2894 45.9803 81.3082 45.8715 81.3082 45.7626C81.3082 45.6538 81.2988 45.5449 81.2894 45.436C81.2894 45.427 81.2894 45.4179 81.2894 45.4088" fill="white" fill-opacity="0.9"/>
<path d="M142.115 56.8387L141.776 56.5121L123.699 39.0861L117.274 32.8904L150.458 0.868652H136.368L135.079 2.11142C135.079 2.11142 135.023 2.16585 134.995 2.19306C134.929 2.24749 134.872 2.30192 134.825 2.36542C134.797 2.39263 134.769 2.41985 134.741 2.44706L105.461 30.6861H103.194V0.868652H93.2334V64.8849H103.194V35.0857H105.461L116.644 45.8715L136.152 64.6854H150.232L142.115 56.8568" fill="white" fill-opacity="0.9"/>
<path d="M255.614 63.1885C252.642 64.2498 249.462 64.8122 246.236 64.8304C249.858 64.7487 252.961 64.1228 255.614 63.1885Z" fill="white" fill-opacity="0.9"/>
</g>
<defs>
<clipPath id="clip0_1521_118">
<rect width="330.206" height="64.2068" fill="white" transform="translate(0.897461 0.705078)"/>
</clipPath>
</defs>
</svg>
